{
  "source": "C:\\Users\\Peter\\Desktop\\stuff\\MIUN\\quantitative_research\\video_compression\\videos\\BVI-HD\\BVI-HD_CDVL_videos\\ORIG\\SmokeGuns_1920x1080_60fps.mp4",
  "output": "C:\\Users\\Peter\\Desktop\\stuff\\MIUN\\quantitative_research\\video_compression\\compressed_videos\\BVI-HD\\h264\\2.5\\SmokeGuns_1920x1080_60fps_h264.mp4",
  "codec": "h264",
  "ok": "Input #0, mov,mp4,m4a,3gp,3g2,mj2, from 'C:\\Users\\Peter\\Desktop\\stuff\\MIUN\\quantitative_research\\video_compression\\videos\\BVI-HD\\BVI-HD_CDVL_videos\\ORIG\\SmokeGuns_1920x1080_60fps.mp4':\n  Metadata:\n    major_brand     : isom\n    minor_version   : 512\n    compatible_brands: isomiso2avc1mp41\n    encoder         : Lavf54.28.101\n  Duration: 00:00:05.00, start: 0.000000, bitrate: 384353 kb/s\n  Stream #0:0[0x1](und): Video: h264 (High 4:4:4 Predictive) (avc1 / 0x31637661), yuv420p(progressive), 1920x1080, 384348 kb/s, 60 fps, 60 tbr, 60 tbn (default)\n    Metadata:\n      handler_name    : VideoHandler\n      vendor_id       : [0][0][0][0]\n[out#0/mp4 @ 000001ea5fe19c00] Codec AVOption b:a (set bitrate (in bits/s)) has not been used for any stream. The most likely reason is either wrong type (e.g. a video option with no video streams) or that it is a private option of some decoder which was not actually used for any stream.\nStream mapping:\n  Stream #0:0 -> #0:0 (h264 (native) -> h264 (libx264))\nPress [q] to stop, [?] for help\n[libx264 @ 000001ea60410ac0] using cpu capabilities: MMX2 SSE2Fast SSSE3 SSE4.2 AVX FMA3 BMI2 AVX2\n[libx264 @ 000001ea60410ac0] profile High, level 5.0, 4:2:0, 8-bit\n[libx264 @ 000001ea60410ac0] 264 - core 165 r3222 b35605a - H.264/MPEG-4 AVC codec - Copyleft 2003-2025 - http://www.videolan.org/x264.html - options: cabac=1 ref=5 deblock=1:0:0 analyse=0x3:0x113 me=hex subme=8 psy=1 psy_rd=1.00:0.00 mixed_ref=1 me_range=16 chroma_me=1 trellis=2 8x8dct=1 cqm=0 deadzone=21,11 fast_pskip=1 chroma_qp_offset=-2 threads=18 lookahead_threads=3 sliced_threads=0 nr=0 decimate=1 interlaced=0 bluray_compat=0 constrained_intra=0 bframes=3 b_pyramid=2 b_adapt=1 b_bias=0 direct=3 weightb=1 open_gop=0 weightp=2 keyint=250 keyint_min=25 scenecut=40 intra_refresh=0 rc_lookahead=50 rc=cbr mbtree=1 bitrate=2500 ratetol=1.0 qcomp=0.60 qpmin=0 qpmax=69 qpstep=4 vbv_maxrate=2500 vbv_bufsize=2500 nal_hrd=none filler=0 ip_ratio=1.40 aq=1:1.00\nOutput #0, mp4, to 'C:\\Users\\Peter\\Desktop\\stuff\\MIUN\\quantitative_research\\video_compression\\compressed_videos\\BVI-HD\\h264\\2.5\\SmokeGuns_1920x1080_60fps_h264.mp4':\n  Metadata:\n    major_brand     : isom\n    minor_version   : 512\n    compatible_brands: isomiso2avc1mp41\n    encoder         : Lavf62.3.100\n  Stream #0:0(und): Video: h264 (avc1 / 0x31637661), yuv420p(tv, progressive), 1920x1080, q=2-31, 2500 kb/s, 60 fps, 15360 tbn (default)\n    Metadata:\n      encoder         : Lavc62.11.100 libx264\n      handler_name    : VideoHandler\n      vendor_id       : [0][0][0][0]\n    Side data:\n      cpb: bitrate max/min/avg: 2500000/0/2500000 buffer size: 2500000 vbv_delay: N/A\nframe=    0 fps=0.0 q=0.0 size=       0KiB time=N/A bitrate=N/A speed=N/A elapsed=0:00:00.52    \nframe=    0 fps=0.0 q=0.0 size=       0KiB time=N/A bitrate=N/A speed=N/A elapsed=0:00:01.04    \nframe=   32 fps= 20 q=40.0 size=       0KiB time=00:00:00.50 bitrate=   0.8kbits/s speed=0.318x elapsed=0:00:01.57    \nframe=   64 fps= 30 q=38.0 size=       0KiB time=00:00:00.96 bitrate=   0.4kbits/s speed=0.457x elapsed=0:00:02.11    \nframe=   96 fps= 36 q=38.0 size=     256KiB time=00:00:01.56 bitrate=1338.9kbits/s speed=0.586x elapsed=0:00:02.67    \nframe=  125 fps= 39 q=39.0 size=     256KiB time=00:00:02.05 bitrate=1023.2kbits/s speed=0.634x elapsed=0:00:03.23    \nframe=  160 fps= 42 q=38.0 size=     512KiB time=00:00:02.63 bitrate=1592.9kbits/s speed=0.695x elapsed=0:00:03.78    \nframe=  196 fps= 45 q=39.0 size=     768KiB time=00:00:03.20 bitrate=1966.2kbits/s speed=0.738x elapsed=0:00:04.33    \nframe=  232 fps= 47 q=38.0 size=     768KiB time=00:00:03.83 bitrate=1641.3kbits/s speed=0.785x elapsed=0:00:04.88    \nframe=  263 fps= 49 q=38.0 size=    1024KiB time=00:00:04.35 bitrate=1928.5kbits/s speed=0.805x elapsed=0:00:05.40    \n[mp4 @ 000001ea5fe2a600] Starting second pass: moving the moov atom to the beginning of the file\n[out#0/mp4 @ 000001ea5fe19c00] video:1200KiB audio:0KiB subtitle:0KiB other streams:0KiB global headers:0KiB muxing overhead: 0.363782%\nframe=  300 fps= 53 q=-1.0 Lsize=    1205KiB time=00:00:04.96 bitrate=1986.9kbits/s speed=0.87x elapsed=0:00:05.70    \n[libx264 @ 000001ea60410ac0] frame I:2     Avg QP:34.05  size: 33778\n[libx264 @ 000001ea60410ac0] frame P:76    Avg QP:35.90  size:  9813\n[libx264 @ 000001ea60410ac0] frame B:222   Avg QP:40.31  size:  1869\n[libx264 @ 000001ea60410ac0] consecutive B-frames:  1.3%  0.0%  0.0% 98.7%\n[libx264 @ 000001ea60410ac0] mb I  I16..4: 47.7% 50.6%  1.7%\n[libx264 @ 000001ea60410ac0] mb P  I16..4:  5.1%  2.8%  0.0%  P16..4: 34.0%  2.7%  1.6%  0.0%  0.0%    skip:53.8%\n[libx264 @ 000001ea60410ac0] mb B  I16..4:  0.1%  0.0%  0.0%  B16..8: 22.7%  0.3%  0.0%  direct: 0.1%  skip:76.8%  L0:22.5% L1:77.0% BI: 0.5%\n[libx264 @ 000001ea60410ac0] 8x8 transform intra:39.1% inter:95.8%\n[libx264 @ 000001ea60410ac0] direct mvs  spatial:95.5% temporal:4.5%\n[libx264 @ 000001ea60410ac0] coded y,uvDC,uvAC intra: 16.4% 33.4% 4.1% inter: 1.8% 2.0% 0.0%\n[libx264 @ 000001ea60410ac0] i16 v,h,dc,p: 24% 23%  9% 44%\n[libx264 @ 000001ea60410ac0] i8 v,h,dc,ddl,ddr,vr,hd,vl,hu: 10%  7% 16% 10% 12% 12% 12% 11% 11%\n[libx264 @ 000001ea60410ac0] i4 v,h,dc,ddl,ddr,vr,hd,vl,hu:  9%  6%  6% 11% 17% 15% 12% 12% 12%\n[libx264 @ 000001ea60410ac0] i8c dc,h,v,p: 73% 12%  9%  6%\n[libx264 @ 000001ea60410ac0] Weighted P-Frames: Y:0.0% UV:0.0%\n[libx264 @ 000001ea60410ac0] ref P L0: 52.4% 18.6% 19.9%  4.0%  5.1%\n[libx264 @ 000001ea60410ac0] ref B L0: 89.0%  8.2%  2.0%  0.7%\n[libx264 @ 000001ea60410ac0] ref B L1: 96.8%  3.2%\n[libx264 @ 000001ea60410ac0] kb/s:1965.23\n",
  "seconds": 5.930881977081299,
  "probe_out": {}
}